<?xml version="1.0" standalone="no"?>
<svg viewBox="0 0 200 200" xmlns="http://www.w3.org/2000/svg">
  <path fill="#BAE6FF" d="M42,-69.7C49.7,-60.3,48.2,-40.8,51.2,-25.9C54.2,-10.9,61.6,-0.5,64,11.9C66.4,24.3,63.8,38.7,56.3,50.6C48.8,62.6,36.4,72.1,23,73.9C9.7,75.8,-4.6,70,-18.7,65.1C-32.8,60.3,-46.7,56.4,-56.9,47.6C-67.1,38.8,-73.6,25.2,-74.7,11.3C-75.8,-2.6,-71.5,-16.6,-64.4,-28.3C-57.3,-39.9,-47.3,-49,-36.1,-56.9C-24.9,-64.8,-12.5,-71.4,2.3,-75C17.1,-78.6,34.2,-79.2,42,-69.7Z" transform="translate(100 100)" />
</svg>
